# xmcd CD database file
#
# Track frame offsets:
#	150
#	13590
#	30391
#	46316
#	61183
#	78797
#	94108
#	111423
#	128661
#	145067
#
# Disc length: 2133 seconds
#
# Revision: 0
# Processed by: cddbd v1.5.2PL0 Copyright (c) Steve Scherf et al.
# Submitted via: CDex 1.79
#
DISCID=7408530a
DTITLE=John Slaughter - Stay For A While
DYEAR=2011
DGENRE=Country
TTITLE0=Need A Little Something
TTITLE1=Stay For A While
TTITLE2=Hasn`t Everyone
TTITLE3=Single Rose Kind Of Girl
TTITLE4=Pray For Rain
TTITLE5=Don`t Drink My Whiskey
TTITLE6=You Thought I`d Never Be
TTITLE7=Timbertown
TTITLE8=The Broken White Line
TTITLE9=Back To Me
EXTD=YEAR: 2011
EXTT0=
EXTT1=
EXTT2=
EXTT3=
EXTT4=
EXTT5=
EXTT6=
EXTT7=
EXTT8=
EXTT9=
PLAYORDER=
